<mxfile host="app.diagrams.net" agent="Mozilla/5.0 (Windows NT 10.0; Win64; x64) AppleWebKit/537.36 (KHTML, like Gecko) Chrome/131.0.0.0 Safari/537.36 Edg/131.0.0.0" version="25.0.3">
  <diagram name="Page-1" id="2YBvvXClWsGukQMizWep">
    <mxGraphModel dx="5331" dy="1437" grid="1" gridSize="10" guides="1" tooltips="1" connect="1" arrows="1" fold="1" page="0" pageScale="1" pageWidth="850" pageHeight="1100" math="0" shadow="0">
      <root>
        <mxCell id="0" />
        <mxCell id="1" parent="0" />
        <mxCell id="aM9ryv3xv72pqoxQDRHE-1" value="Application" style="shape=umlLifeline;perimeter=lifelinePerimeter;whiteSpace=wrap;html=1;container=0;dropTarget=0;collapsible=0;recursiveResize=0;outlineConnect=0;portConstraint=eastwest;newEdgeStyle={&quot;edgeStyle&quot;:&quot;elbowEdgeStyle&quot;,&quot;elbow&quot;:&quot;vertical&quot;,&quot;curved&quot;:0,&quot;rounded&quot;:0};" parent="1" vertex="1">
          <mxGeometry x="160" y="40" width="100" height="1050" as="geometry" />
        </mxCell>
        <mxCell id="aM9ryv3xv72pqoxQDRHE-2" value="" style="html=1;points=[];perimeter=orthogonalPerimeter;outlineConnect=0;targetShapes=umlLifeline;portConstraint=eastwest;newEdgeStyle={&quot;edgeStyle&quot;:&quot;elbowEdgeStyle&quot;,&quot;elbow&quot;:&quot;vertical&quot;,&quot;curved&quot;:0,&quot;rounded&quot;:0};" parent="aM9ryv3xv72pqoxQDRHE-1" vertex="1">
          <mxGeometry x="45" y="70" width="10" height="960" as="geometry" />
        </mxCell>
        <mxCell id="aM9ryv3xv72pqoxQDRHE-5" value="serveur" style="shape=umlLifeline;perimeter=lifelinePerimeter;whiteSpace=wrap;html=1;container=0;dropTarget=0;collapsible=0;recursiveResize=0;outlineConnect=0;portConstraint=eastwest;newEdgeStyle={&quot;edgeStyle&quot;:&quot;elbowEdgeStyle&quot;,&quot;elbow&quot;:&quot;vertical&quot;,&quot;curved&quot;:0,&quot;rounded&quot;:0};" parent="1" vertex="1">
          <mxGeometry x="338" y="40" width="100" height="1050" as="geometry" />
        </mxCell>
        <mxCell id="aM9ryv3xv72pqoxQDRHE-6" value="" style="html=1;points=[];perimeter=orthogonalPerimeter;outlineConnect=0;targetShapes=umlLifeline;portConstraint=eastwest;newEdgeStyle={&quot;edgeStyle&quot;:&quot;elbowEdgeStyle&quot;,&quot;elbow&quot;:&quot;vertical&quot;,&quot;curved&quot;:0,&quot;rounded&quot;:0};" parent="aM9ryv3xv72pqoxQDRHE-5" vertex="1">
          <mxGeometry x="45" y="80" width="10" height="950" as="geometry" />
        </mxCell>
        <mxCell id="9jD9Q91CgVgNfI2XXL_Y-2" value="" style="shape=umlLifeline;perimeter=lifelinePerimeter;whiteSpace=wrap;html=1;container=1;dropTarget=0;collapsible=0;recursiveResize=0;outlineConnect=0;portConstraint=eastwest;newEdgeStyle={&quot;curved&quot;:0,&quot;rounded&quot;:0};participant=umlActor;size=40;" parent="1" vertex="1">
          <mxGeometry x="-50" y="40" width="20" height="1050" as="geometry" />
        </mxCell>
        <mxCell id="9jD9Q91CgVgNfI2XXL_Y-3" value="Administrateur" style="text;html=1;align=center;verticalAlign=middle;resizable=0;points=[];autosize=1;strokeColor=none;fillColor=none;" parent="1" vertex="1">
          <mxGeometry x="-80" y="90" width="100" height="30" as="geometry" />
        </mxCell>
        <mxCell id="9jD9Q91CgVgNfI2XXL_Y-7" value="" style="endArrow=classic;html=1;rounded=0;" parent="1" edge="1">
          <mxGeometry width="50" height="50" relative="1" as="geometry">
            <mxPoint x="-40.40909090909099" y="160" as="sourcePoint" />
            <mxPoint x="207.5" y="160" as="targetPoint" />
          </mxGeometry>
        </mxCell>
        <mxCell id="9jD9Q91CgVgNfI2XXL_Y-8" value="remplir formulaire du document" style="text;html=1;align=center;verticalAlign=middle;resizable=0;points=[];autosize=1;strokeColor=none;fillColor=none;" parent="1" vertex="1">
          <mxGeometry x="-10" y="128" width="190" height="30" as="geometry" />
        </mxCell>
        <mxCell id="9jD9Q91CgVgNfI2XXL_Y-10" value="BD" style="shape=umlLifeline;perimeter=lifelinePerimeter;whiteSpace=wrap;html=1;container=0;dropTarget=0;collapsible=0;recursiveResize=0;outlineConnect=0;portConstraint=eastwest;newEdgeStyle={&quot;edgeStyle&quot;:&quot;elbowEdgeStyle&quot;,&quot;elbow&quot;:&quot;vertical&quot;,&quot;curved&quot;:0,&quot;rounded&quot;:0};" parent="1" vertex="1">
          <mxGeometry x="525" y="40" width="100" height="1050" as="geometry" />
        </mxCell>
        <mxCell id="9jD9Q91CgVgNfI2XXL_Y-11" value="" style="html=1;points=[];perimeter=orthogonalPerimeter;outlineConnect=0;targetShapes=umlLifeline;portConstraint=eastwest;newEdgeStyle={&quot;edgeStyle&quot;:&quot;elbowEdgeStyle&quot;,&quot;elbow&quot;:&quot;vertical&quot;,&quot;curved&quot;:0,&quot;rounded&quot;:0};" parent="9jD9Q91CgVgNfI2XXL_Y-10" vertex="1">
          <mxGeometry x="45" y="80" width="10" height="950" as="geometry" />
        </mxCell>
        <mxCell id="9jD9Q91CgVgNfI2XXL_Y-12" value="" style="endArrow=classic;html=1;rounded=0;" parent="1" edge="1">
          <mxGeometry width="50" height="50" relative="1" as="geometry">
            <mxPoint x="215" y="174" as="sourcePoint" />
            <mxPoint x="382.5000000000002" y="174" as="targetPoint" />
          </mxGeometry>
        </mxCell>
        <mxCell id="9jD9Q91CgVgNfI2XXL_Y-13" value="initData" style="text;html=1;align=center;verticalAlign=middle;resizable=0;points=[];autosize=1;strokeColor=none;fillColor=none;" parent="1" vertex="1">
          <mxGeometry x="278" y="151" width="60" height="30" as="geometry" />
        </mxCell>
        <mxCell id="9jD9Q91CgVgNfI2XXL_Y-16" value="charger donnÃ©es" style="html=1;verticalAlign=bottom;endArrow=open;dashed=1;endSize=8;curved=0;rounded=0;" parent="1" source="aM9ryv3xv72pqoxQDRHE-6" edge="1">
          <mxGeometry x="0.0952" y="-10" relative="1" as="geometry">
            <mxPoint x="377" y="210" as="sourcePoint" />
            <mxPoint x="216.4473684210525" y="210" as="targetPoint" />
            <mxPoint as="offset" />
          </mxGeometry>
        </mxCell>
        <mxCell id="9jD9Q91CgVgNfI2XXL_Y-17" value="" style="endArrow=classic;html=1;rounded=0;" parent="1" edge="1">
          <mxGeometry width="50" height="50" relative="1" as="geometry">
            <mxPoint x="216" y="280" as="sourcePoint" />
            <mxPoint x="384.05000000000024" y="280" as="targetPoint" />
          </mxGeometry>
        </mxCell>
        <mxCell id="9jD9Q91CgVgNfI2XXL_Y-18" value="processUsecase()" style="text;html=1;align=center;verticalAlign=middle;resizable=0;points=[];autosize=1;strokeColor=none;fillColor=none;" parent="1" vertex="1">
          <mxGeometry x="248.55" y="257" width="120" height="30" as="geometry" />
        </mxCell>
        <mxCell id="9jD9Q91CgVgNfI2XXL_Y-26" value="" style="endArrow=classic;html=1;rounded=0;" parent="1" target="aM9ryv3xv72pqoxQDRHE-1" edge="1">
          <mxGeometry width="50" height="50" relative="1" as="geometry">
            <mxPoint x="-40.0026315789475" y="255.95" as="sourcePoint" />
            <mxPoint x="138.05000000000018" y="255.95" as="targetPoint" />
          </mxGeometry>
        </mxCell>
        <mxCell id="9jD9Q91CgVgNfI2XXL_Y-28" value="charger du document" style="text;html=1;align=center;verticalAlign=middle;resizable=0;points=[];autosize=1;strokeColor=none;fillColor=none;" parent="1" vertex="1">
          <mxGeometry x="15" y="220" width="140" height="30" as="geometry" />
        </mxCell>
        <mxCell id="9jD9Q91CgVgNfI2XXL_Y-30" value="" style="endArrow=classic;html=1;rounded=0;" parent="1" edge="1">
          <mxGeometry width="50" height="50" relative="1" as="geometry">
            <mxPoint x="391.9973684210525" y="304" as="sourcePoint" />
            <mxPoint x="570.0500000000002" y="304" as="targetPoint" />
          </mxGeometry>
        </mxCell>
        <mxCell id="9jD9Q91CgVgNfI2XXL_Y-31" value="response" style="html=1;verticalAlign=bottom;endArrow=open;dashed=1;endSize=8;curved=0;rounded=0;" parent="1" edge="1">
          <mxGeometry x="-0.1233" y="-10" relative="1" as="geometry">
            <mxPoint x="568.0500000000003" y="336" as="sourcePoint" />
            <mxPoint x="389.99736842105256" y="336" as="targetPoint" />
            <mxPoint as="offset" />
          </mxGeometry>
        </mxCell>
        <mxCell id="9jD9Q91CgVgNfI2XXL_Y-32" value="checkAvaibility()" style="text;html=1;align=center;verticalAlign=middle;resizable=0;points=[];autosize=1;strokeColor=none;fillColor=none;" parent="1" vertex="1">
          <mxGeometry x="425" y="264" width="110" height="30" as="geometry" />
        </mxCell>
        <mxCell id="9jD9Q91CgVgNfI2XXL_Y-33" value="response" style="html=1;verticalAlign=bottom;endArrow=open;dashed=1;endSize=8;curved=0;rounded=0;" parent="1" edge="1">
          <mxGeometry x="-0.1233" y="-10" relative="1" as="geometry">
            <mxPoint x="388.0500000000003" y="361" as="sourcePoint" />
            <mxPoint x="210" y="361" as="targetPoint" />
            <mxPoint as="offset" />
          </mxGeometry>
        </mxCell>
        <mxCell id="9jD9Q91CgVgNfI2XXL_Y-34" value="alt" style="shape=umlFrame;whiteSpace=wrap;html=1;pointerEvents=0;" parent="1" vertex="1">
          <mxGeometry x="-70" y="380" width="710" height="660" as="geometry" />
        </mxCell>
        <mxCell id="9jD9Q91CgVgNfI2XXL_Y-35" value="" style="endArrow=classic;html=1;rounded=0;" parent="1" edge="1">
          <mxGeometry width="50" height="50" relative="1" as="geometry">
            <mxPoint x="-38.95909090909099" y="458" as="sourcePoint" />
            <mxPoint x="208.95" y="458" as="targetPoint" />
          </mxGeometry>
        </mxCell>
        <mxCell id="9jD9Q91CgVgNfI2XXL_Y-36" value="&lt;div&gt;modifier du document&lt;/div&gt;" style="text;html=1;align=center;verticalAlign=middle;resizable=0;points=[];autosize=1;strokeColor=none;fillColor=none;" parent="1" vertex="1">
          <mxGeometry x="16.45" y="429" width="140" height="30" as="geometry" />
        </mxCell>
        <mxCell id="9jD9Q91CgVgNfI2XXL_Y-37" value="" style="endArrow=classic;html=1;rounded=0;" parent="1" edge="1">
          <mxGeometry width="50" height="50" relative="1" as="geometry">
            <mxPoint x="215" y="463" as="sourcePoint" />
            <mxPoint x="383.05000000000024" y="463" as="targetPoint" />
          </mxGeometry>
        </mxCell>
        <mxCell id="9jD9Q91CgVgNfI2XXL_Y-38" value="processUsecase()" style="text;html=1;align=center;verticalAlign=middle;resizable=0;points=[];autosize=1;strokeColor=none;fillColor=none;" parent="1" vertex="1">
          <mxGeometry x="252.55" y="440" width="120" height="30" as="geometry" />
        </mxCell>
        <mxCell id="9jD9Q91CgVgNfI2XXL_Y-39" value="" style="endArrow=classic;html=1;rounded=0;" parent="1" edge="1">
          <mxGeometry width="50" height="50" relative="1" as="geometry">
            <mxPoint x="390.9773684210525" y="480" as="sourcePoint" />
            <mxPoint x="569.0300000000002" y="480" as="targetPoint" />
          </mxGeometry>
        </mxCell>
        <mxCell id="9jD9Q91CgVgNfI2XXL_Y-41" value="response" style="html=1;verticalAlign=bottom;endArrow=open;dashed=1;endSize=8;curved=0;rounded=0;" parent="1" edge="1">
          <mxGeometry x="-0.1233" y="-10" relative="1" as="geometry">
            <mxPoint x="568.0100000000003" y="510" as="sourcePoint" />
            <mxPoint x="389.95736842105254" y="510" as="targetPoint" />
            <mxPoint as="offset" />
          </mxGeometry>
        </mxCell>
        <mxCell id="9jD9Q91CgVgNfI2XXL_Y-42" value="response" style="html=1;verticalAlign=bottom;endArrow=open;dashed=1;endSize=8;curved=0;rounded=0;" parent="1" edge="1">
          <mxGeometry x="-0.1233" y="-10" relative="1" as="geometry">
            <mxPoint x="388.0500000000003" y="540" as="sourcePoint" />
            <mxPoint x="210" y="540" as="targetPoint" />
            <mxPoint as="offset" />
          </mxGeometry>
        </mxCell>
        <mxCell id="9jD9Q91CgVgNfI2XXL_Y-43" value="" style="endArrow=none;dashed=1;html=1;dashPattern=1 3;strokeWidth=2;rounded=0;exitX=0.002;exitY=0.53;exitDx=0;exitDy=0;exitPerimeter=0;" parent="1" edge="1">
          <mxGeometry width="50" height="50" relative="1" as="geometry">
            <mxPoint x="-68.57999999999993" y="599.4000000000001" as="sourcePoint" />
            <mxPoint x="639" y="599" as="targetPoint" />
          </mxGeometry>
        </mxCell>
        <mxCell id="9jD9Q91CgVgNfI2XXL_Y-44" value="afficher message de modification&amp;nbsp;" style="html=1;verticalAlign=bottom;endArrow=open;dashed=1;endSize=8;curved=0;rounded=0;" parent="1" edge="1">
          <mxGeometry x="-0.1233" y="-10" relative="1" as="geometry">
            <mxPoint x="211.58" y="569.38" as="sourcePoint" />
            <mxPoint x="-38.669999999999774" y="569.38" as="targetPoint" />
            <mxPoint as="offset" />
          </mxGeometry>
        </mxCell>
        <mxCell id="9jD9Q91CgVgNfI2XXL_Y-45" value="[modification]" style="text;html=1;align=center;verticalAlign=middle;resizable=0;points=[];autosize=1;strokeColor=none;fillColor=none;" parent="1" vertex="1">
          <mxGeometry x="-10" y="380" width="90" height="30" as="geometry" />
        </mxCell>
        <mxCell id="9jD9Q91CgVgNfI2XXL_Y-47" value="" style="endArrow=classic;html=1;rounded=0;" parent="1" edge="1">
          <mxGeometry width="50" height="50" relative="1" as="geometry">
            <mxPoint x="-37.95909090909099" y="674" as="sourcePoint" />
            <mxPoint x="209.95" y="674" as="targetPoint" />
          </mxGeometry>
        </mxCell>
        <mxCell id="9jD9Q91CgVgNfI2XXL_Y-48" value="&lt;div&gt;archiver du document&lt;/div&gt;" style="text;html=1;align=center;verticalAlign=middle;resizable=0;points=[];autosize=1;strokeColor=none;fillColor=none;" parent="1" vertex="1">
          <mxGeometry x="17.45" y="645" width="140" height="30" as="geometry" />
        </mxCell>
        <mxCell id="9jD9Q91CgVgNfI2XXL_Y-49" value="" style="endArrow=classic;html=1;rounded=0;" parent="1" edge="1">
          <mxGeometry width="50" height="50" relative="1" as="geometry">
            <mxPoint x="216" y="679" as="sourcePoint" />
            <mxPoint x="384.05000000000024" y="679" as="targetPoint" />
          </mxGeometry>
        </mxCell>
        <mxCell id="9jD9Q91CgVgNfI2XXL_Y-50" value="processUsecase()" style="text;html=1;align=center;verticalAlign=middle;resizable=0;points=[];autosize=1;strokeColor=none;fillColor=none;" parent="1" vertex="1">
          <mxGeometry x="253.55" y="656" width="120" height="30" as="geometry" />
        </mxCell>
        <mxCell id="9jD9Q91CgVgNfI2XXL_Y-51" value="" style="endArrow=classic;html=1;rounded=0;" parent="1" edge="1">
          <mxGeometry width="50" height="50" relative="1" as="geometry">
            <mxPoint x="391.9773684210525" y="696" as="sourcePoint" />
            <mxPoint x="570.0300000000002" y="696" as="targetPoint" />
          </mxGeometry>
        </mxCell>
        <mxCell id="9jD9Q91CgVgNfI2XXL_Y-53" value="response" style="html=1;verticalAlign=bottom;endArrow=open;dashed=1;endSize=8;curved=0;rounded=0;" parent="1" edge="1">
          <mxGeometry x="-0.1233" y="-10" relative="1" as="geometry">
            <mxPoint x="569.0100000000003" y="726" as="sourcePoint" />
            <mxPoint x="390.95736842105254" y="726" as="targetPoint" />
            <mxPoint as="offset" />
          </mxGeometry>
        </mxCell>
        <mxCell id="9jD9Q91CgVgNfI2XXL_Y-54" value="response" style="html=1;verticalAlign=bottom;endArrow=open;dashed=1;endSize=8;curved=0;rounded=0;" parent="1" edge="1">
          <mxGeometry x="-0.1233" y="-10" relative="1" as="geometry">
            <mxPoint x="389.0500000000003" y="756" as="sourcePoint" />
            <mxPoint x="211" y="756" as="targetPoint" />
            <mxPoint as="offset" />
          </mxGeometry>
        </mxCell>
        <mxCell id="9jD9Q91CgVgNfI2XXL_Y-56" value="afficher message d&#39;archivement" style="html=1;verticalAlign=bottom;endArrow=open;dashed=1;endSize=8;curved=0;rounded=0;" parent="1" edge="1">
          <mxGeometry x="-0.1233" y="-10" relative="1" as="geometry">
            <mxPoint x="210.58" y="771.38" as="sourcePoint" />
            <mxPoint x="-39.669999999999774" y="771.38" as="targetPoint" />
            <mxPoint as="offset" />
          </mxGeometry>
        </mxCell>
        <mxCell id="9jD9Q91CgVgNfI2XXL_Y-57" value="" style="endArrow=none;dashed=1;html=1;dashPattern=1 3;strokeWidth=2;rounded=0;exitX=0.002;exitY=0.53;exitDx=0;exitDy=0;exitPerimeter=0;" parent="1" edge="1">
          <mxGeometry width="50" height="50" relative="1" as="geometry">
            <mxPoint x="-68.78999999999994" y="800.4000000000001" as="sourcePoint" />
            <mxPoint x="638.79" y="800" as="targetPoint" />
          </mxGeometry>
        </mxCell>
        <mxCell id="9jD9Q91CgVgNfI2XXL_Y-58" value="[Archivement]" style="text;html=1;align=center;verticalAlign=middle;resizable=0;points=[];autosize=1;strokeColor=none;fillColor=none;" parent="1" vertex="1">
          <mxGeometry x="-35" y="610" width="100" height="30" as="geometry" />
        </mxCell>
        <mxCell id="9jD9Q91CgVgNfI2XXL_Y-59" value="update" style="text;html=1;align=center;verticalAlign=middle;resizable=0;points=[];autosize=1;strokeColor=none;fillColor=none;" parent="1" vertex="1">
          <mxGeometry x="450" y="450" width="60" height="30" as="geometry" />
        </mxCell>
        <mxCell id="9jD9Q91CgVgNfI2XXL_Y-60" value="checkAvaibility()" style="text;html=1;align=center;verticalAlign=middle;resizable=0;points=[];autosize=1;strokeColor=none;fillColor=none;" parent="1" vertex="1">
          <mxGeometry x="425" y="656" width="110" height="30" as="geometry" />
        </mxCell>
        <mxCell id="9jD9Q91CgVgNfI2XXL_Y-62" value="" style="endArrow=classic;html=1;rounded=0;" parent="1" edge="1">
          <mxGeometry width="50" height="50" relative="1" as="geometry">
            <mxPoint x="-40.95909090909099" y="877" as="sourcePoint" />
            <mxPoint x="206.95" y="877" as="targetPoint" />
          </mxGeometry>
        </mxCell>
        <mxCell id="9jD9Q91CgVgNfI2XXL_Y-63" value="&lt;div&gt;tÃ©lÃ©charger du document&lt;/div&gt;" style="text;html=1;align=center;verticalAlign=middle;resizable=0;points=[];autosize=1;strokeColor=none;fillColor=none;" parent="1" vertex="1">
          <mxGeometry x="4.449999999999999" y="848" width="160" height="30" as="geometry" />
        </mxCell>
        <mxCell id="9jD9Q91CgVgNfI2XXL_Y-64" value="" style="endArrow=classic;html=1;rounded=0;" parent="1" edge="1">
          <mxGeometry width="50" height="50" relative="1" as="geometry">
            <mxPoint x="213" y="882" as="sourcePoint" />
            <mxPoint x="381.05000000000024" y="882" as="targetPoint" />
          </mxGeometry>
        </mxCell>
        <mxCell id="9jD9Q91CgVgNfI2XXL_Y-65" value="processUsecase()" style="text;html=1;align=center;verticalAlign=middle;resizable=0;points=[];autosize=1;strokeColor=none;fillColor=none;" parent="1" vertex="1">
          <mxGeometry x="250.55" y="859" width="120" height="30" as="geometry" />
        </mxCell>
        <mxCell id="9jD9Q91CgVgNfI2XXL_Y-66" value="" style="endArrow=classic;html=1;rounded=0;" parent="1" edge="1">
          <mxGeometry width="50" height="50" relative="1" as="geometry">
            <mxPoint x="388.9773684210525" y="899" as="sourcePoint" />
            <mxPoint x="567.0300000000002" y="899" as="targetPoint" />
          </mxGeometry>
        </mxCell>
        <mxCell id="9jD9Q91CgVgNfI2XXL_Y-67" value="response" style="html=1;verticalAlign=bottom;endArrow=open;dashed=1;endSize=8;curved=0;rounded=0;" parent="1" edge="1">
          <mxGeometry x="-0.1233" y="-10" relative="1" as="geometry">
            <mxPoint x="566.0100000000003" y="929" as="sourcePoint" />
            <mxPoint x="387.95736842105254" y="929" as="targetPoint" />
            <mxPoint as="offset" />
          </mxGeometry>
        </mxCell>
        <mxCell id="9jD9Q91CgVgNfI2XXL_Y-68" value="response" style="html=1;verticalAlign=bottom;endArrow=open;dashed=1;endSize=8;curved=0;rounded=0;" parent="1" edge="1">
          <mxGeometry x="-0.1233" y="-10" relative="1" as="geometry">
            <mxPoint x="386.0500000000003" y="959" as="sourcePoint" />
            <mxPoint x="208" y="959" as="targetPoint" />
            <mxPoint as="offset" />
          </mxGeometry>
        </mxCell>
        <mxCell id="9jD9Q91CgVgNfI2XXL_Y-69" value="afficher message de tÃ©lÃ©chargement" style="html=1;verticalAlign=bottom;endArrow=open;dashed=1;endSize=8;curved=0;rounded=0;" parent="1" edge="1">
          <mxGeometry x="-0.1233" y="-10" relative="1" as="geometry">
            <mxPoint x="207.58" y="974.38" as="sourcePoint" />
            <mxPoint x="-42.669999999999774" y="974.38" as="targetPoint" />
            <mxPoint as="offset" />
          </mxGeometry>
        </mxCell>
        <mxCell id="9jD9Q91CgVgNfI2XXL_Y-70" value="[TÃ©lÃ©chragment]" style="text;html=1;align=center;verticalAlign=middle;resizable=0;points=[];autosize=1;strokeColor=none;fillColor=none;" parent="1" vertex="1">
          <mxGeometry x="-43" y="813" width="110" height="30" as="geometry" />
        </mxCell>
        <mxCell id="9jD9Q91CgVgNfI2XXL_Y-71" value="checkAvaibility()" style="text;html=1;align=center;verticalAlign=middle;resizable=0;points=[];autosize=1;strokeColor=none;fillColor=none;" parent="1" vertex="1">
          <mxGeometry x="422" y="859" width="110" height="30" as="geometry" />
        </mxCell>
        <mxCell id="9jD9Q91CgVgNfI2XXL_Y-73" value="Application" style="shape=umlLifeline;perimeter=lifelinePerimeter;whiteSpace=wrap;html=1;container=0;dropTarget=0;collapsible=0;recursiveResize=0;outlineConnect=0;portConstraint=eastwest;newEdgeStyle={&quot;edgeStyle&quot;:&quot;elbowEdgeStyle&quot;,&quot;elbow&quot;:&quot;vertical&quot;,&quot;curved&quot;:0,&quot;rounded&quot;:0};" parent="1" vertex="1">
          <mxGeometry x="-810" y="60" width="100" height="670" as="geometry" />
        </mxCell>
        <mxCell id="9jD9Q91CgVgNfI2XXL_Y-74" value="" style="html=1;points=[];perimeter=orthogonalPerimeter;outlineConnect=0;targetShapes=umlLifeline;portConstraint=eastwest;newEdgeStyle={&quot;edgeStyle&quot;:&quot;elbowEdgeStyle&quot;,&quot;elbow&quot;:&quot;vertical&quot;,&quot;curved&quot;:0,&quot;rounded&quot;:0};" parent="9jD9Q91CgVgNfI2XXL_Y-73" vertex="1">
          <mxGeometry x="45" y="70" width="10" height="580" as="geometry" />
        </mxCell>
        <mxCell id="9jD9Q91CgVgNfI2XXL_Y-75" value="serveur" style="shape=umlLifeline;perimeter=lifelinePerimeter;whiteSpace=wrap;html=1;container=0;dropTarget=0;collapsible=0;recursiveResize=0;outlineConnect=0;portConstraint=eastwest;newEdgeStyle={&quot;edgeStyle&quot;:&quot;elbowEdgeStyle&quot;,&quot;elbow&quot;:&quot;vertical&quot;,&quot;curved&quot;:0,&quot;rounded&quot;:0};" parent="1" vertex="1">
          <mxGeometry x="-632" y="60" width="100" height="670" as="geometry" />
        </mxCell>
        <mxCell id="9jD9Q91CgVgNfI2XXL_Y-76" value="" style="html=1;points=[];perimeter=orthogonalPerimeter;outlineConnect=0;targetShapes=umlLifeline;portConstraint=eastwest;newEdgeStyle={&quot;edgeStyle&quot;:&quot;elbowEdgeStyle&quot;,&quot;elbow&quot;:&quot;vertical&quot;,&quot;curved&quot;:0,&quot;rounded&quot;:0};" parent="9jD9Q91CgVgNfI2XXL_Y-75" vertex="1">
          <mxGeometry x="45" y="80" width="10" height="570" as="geometry" />
        </mxCell>
        <mxCell id="9jD9Q91CgVgNfI2XXL_Y-77" value="" style="shape=umlLifeline;perimeter=lifelinePerimeter;whiteSpace=wrap;html=1;container=1;dropTarget=0;collapsible=0;recursiveResize=0;outlineConnect=0;portConstraint=eastwest;newEdgeStyle={&quot;curved&quot;:0,&quot;rounded&quot;:0};participant=umlActor;size=40;" parent="1" vertex="1">
          <mxGeometry x="-1020" y="60" width="20" height="670" as="geometry" />
        </mxCell>
        <mxCell id="9jD9Q91CgVgNfI2XXL_Y-78" value="Administrateur" style="text;html=1;align=center;verticalAlign=middle;resizable=0;points=[];autosize=1;strokeColor=none;fillColor=none;" parent="1" vertex="1">
          <mxGeometry x="-1050" y="110" width="100" height="30" as="geometry" />
        </mxCell>
        <mxCell id="9jD9Q91CgVgNfI2XXL_Y-79" value="" style="endArrow=classic;html=1;rounded=0;" parent="1" edge="1">
          <mxGeometry width="50" height="50" relative="1" as="geometry">
            <mxPoint x="-1010.409090909091" y="180" as="sourcePoint" />
            <mxPoint x="-762.5" y="180" as="targetPoint" />
          </mxGeometry>
        </mxCell>
        <mxCell id="9jD9Q91CgVgNfI2XXL_Y-80" value="&lt;font style=&quot;font-size: 11px;&quot;&gt;consulter la liste des clauses&lt;/font&gt;" style="text;html=1;align=center;verticalAlign=middle;resizable=0;points=[];autosize=1;strokeColor=none;fillColor=none;" parent="1" vertex="1">
          <mxGeometry x="-980" y="151" width="160" height="30" as="geometry" />
        </mxCell>
        <mxCell id="9jD9Q91CgVgNfI2XXL_Y-81" value="BD" style="shape=umlLifeline;perimeter=lifelinePerimeter;whiteSpace=wrap;html=1;container=0;dropTarget=0;collapsible=0;recursiveResize=0;outlineConnect=0;portConstraint=eastwest;newEdgeStyle={&quot;edgeStyle&quot;:&quot;elbowEdgeStyle&quot;,&quot;elbow&quot;:&quot;vertical&quot;,&quot;curved&quot;:0,&quot;rounded&quot;:0};" parent="1" vertex="1">
          <mxGeometry x="-445" y="60" width="100" height="670" as="geometry" />
        </mxCell>
        <mxCell id="9jD9Q91CgVgNfI2XXL_Y-82" value="" style="html=1;points=[];perimeter=orthogonalPerimeter;outlineConnect=0;targetShapes=umlLifeline;portConstraint=eastwest;newEdgeStyle={&quot;edgeStyle&quot;:&quot;elbowEdgeStyle&quot;,&quot;elbow&quot;:&quot;vertical&quot;,&quot;curved&quot;:0,&quot;rounded&quot;:0};" parent="9jD9Q91CgVgNfI2XXL_Y-81" vertex="1">
          <mxGeometry x="45" y="80" width="10" height="570" as="geometry" />
        </mxCell>
        <mxCell id="9jD9Q91CgVgNfI2XXL_Y-83" value="" style="endArrow=classic;html=1;rounded=0;" parent="1" edge="1">
          <mxGeometry width="50" height="50" relative="1" as="geometry">
            <mxPoint x="-755" y="194" as="sourcePoint" />
            <mxPoint x="-587.4999999999998" y="194" as="targetPoint" />
          </mxGeometry>
        </mxCell>
        <mxCell id="9jD9Q91CgVgNfI2XXL_Y-84" value="initData" style="text;html=1;align=center;verticalAlign=middle;resizable=0;points=[];autosize=1;strokeColor=none;fillColor=none;" parent="1" vertex="1">
          <mxGeometry x="-692" y="171" width="60" height="30" as="geometry" />
        </mxCell>
        <mxCell id="9jD9Q91CgVgNfI2XXL_Y-85" value="charger donnÃ©es" style="html=1;verticalAlign=bottom;endArrow=open;dashed=1;endSize=8;curved=0;rounded=0;" parent="1" source="9jD9Q91CgVgNfI2XXL_Y-76" edge="1">
          <mxGeometry x="0.0952" y="-10" relative="1" as="geometry">
            <mxPoint x="-593" y="230" as="sourcePoint" />
            <mxPoint x="-753.5526315789475" y="230" as="targetPoint" />
            <mxPoint as="offset" />
          </mxGeometry>
        </mxCell>
        <mxCell id="9jD9Q91CgVgNfI2XXL_Y-86" value="" style="endArrow=classic;html=1;rounded=0;" parent="1" edge="1">
          <mxGeometry width="50" height="50" relative="1" as="geometry">
            <mxPoint x="-754" y="350" as="sourcePoint" />
            <mxPoint x="-585.9499999999998" y="350" as="targetPoint" />
          </mxGeometry>
        </mxCell>
        <mxCell id="9jD9Q91CgVgNfI2XXL_Y-87" value="&lt;font style=&quot;font-size: 11px;&quot;&gt;processUsecase()&lt;/font&gt;" style="text;html=1;align=center;verticalAlign=middle;resizable=0;points=[];autosize=1;strokeColor=none;fillColor=none;" parent="1" vertex="1">
          <mxGeometry x="-716.45" y="327" width="110" height="30" as="geometry" />
        </mxCell>
        <mxCell id="9jD9Q91CgVgNfI2XXL_Y-88" value="" style="endArrow=classic;html=1;rounded=0;" parent="1" edge="1">
          <mxGeometry width="50" height="50" relative="1" as="geometry">
            <mxPoint x="-1010.0026315789476" y="325.95" as="sourcePoint" />
            <mxPoint x="-760.5" y="325.95000000000016" as="targetPoint" />
          </mxGeometry>
        </mxCell>
        <mxCell id="9jD9Q91CgVgNfI2XXL_Y-89" value="&lt;font style=&quot;font-size: 11px;&quot;&gt;crÃ©er une clause&lt;/font&gt;" style="text;html=1;align=center;verticalAlign=middle;resizable=0;points=[];autosize=1;strokeColor=none;fillColor=none;" parent="1" vertex="1">
          <mxGeometry x="-955" y="287" width="100" height="30" as="geometry" />
        </mxCell>
        <mxCell id="9jD9Q91CgVgNfI2XXL_Y-90" value="" style="endArrow=classic;html=1;rounded=0;" parent="1" edge="1">
          <mxGeometry width="50" height="50" relative="1" as="geometry">
            <mxPoint x="-578.0026315789476" y="374" as="sourcePoint" />
            <mxPoint x="-399.9499999999998" y="374" as="targetPoint" />
          </mxGeometry>
        </mxCell>
        <mxCell id="9jD9Q91CgVgNfI2XXL_Y-91" value="response" style="html=1;verticalAlign=bottom;endArrow=open;dashed=1;endSize=8;curved=0;rounded=0;" parent="1" edge="1">
          <mxGeometry x="-0.1233" y="-10" relative="1" as="geometry">
            <mxPoint x="-401.9499999999997" y="406" as="sourcePoint" />
            <mxPoint x="-580.0026315789474" y="406" as="targetPoint" />
            <mxPoint as="offset" />
          </mxGeometry>
        </mxCell>
        <mxCell id="9jD9Q91CgVgNfI2XXL_Y-92" value="&lt;font style=&quot;font-size: 11px;&quot;&gt;create()&lt;/font&gt;" style="text;html=1;align=center;verticalAlign=middle;resizable=0;points=[];autosize=1;strokeColor=none;fillColor=none;" parent="1" vertex="1">
          <mxGeometry x="-520" y="334" width="60" height="30" as="geometry" />
        </mxCell>
        <mxCell id="9jD9Q91CgVgNfI2XXL_Y-93" value="response" style="html=1;verticalAlign=bottom;endArrow=open;dashed=1;endSize=8;curved=0;rounded=0;" parent="1" edge="1">
          <mxGeometry x="-0.1233" y="-10" relative="1" as="geometry">
            <mxPoint x="-581.9499999999997" y="431" as="sourcePoint" />
            <mxPoint x="-760" y="431" as="targetPoint" />
            <mxPoint as="offset" />
          </mxGeometry>
        </mxCell>
        <mxCell id="9jD9Q91CgVgNfI2XXL_Y-94" value="alt" style="shape=umlFrame;whiteSpace=wrap;html=1;pointerEvents=0;" parent="1" vertex="1">
          <mxGeometry x="-1070" y="239" width="710" height="441" as="geometry" />
        </mxCell>
        <mxCell id="9jD9Q91CgVgNfI2XXL_Y-102" value="" style="endArrow=none;dashed=1;html=1;dashPattern=1 3;strokeWidth=2;rounded=0;exitX=0.002;exitY=0.53;exitDx=0;exitDy=0;exitPerimeter=0;" parent="1" edge="1">
          <mxGeometry width="50" height="50" relative="1" as="geometry">
            <mxPoint x="-1070" y="480.4000000000001" as="sourcePoint" />
            <mxPoint x="-362.42" y="480" as="targetPoint" />
          </mxGeometry>
        </mxCell>
        <mxCell id="9jD9Q91CgVgNfI2XXL_Y-103" value="afficher message d&#39;ajout" style="html=1;verticalAlign=bottom;endArrow=open;dashed=1;endSize=8;curved=0;rounded=0;" parent="1" edge="1">
          <mxGeometry x="-0.1233" y="-10" relative="1" as="geometry">
            <mxPoint x="-765.42" y="451.38" as="sourcePoint" />
            <mxPoint x="-1015.6699999999997" y="451.38" as="targetPoint" />
            <mxPoint as="offset" />
          </mxGeometry>
        </mxCell>
        <mxCell id="9jD9Q91CgVgNfI2XXL_Y-104" value="[ajout]" style="text;html=1;align=center;verticalAlign=middle;resizable=0;points=[];autosize=1;strokeColor=none;fillColor=none;" parent="1" vertex="1">
          <mxGeometry x="-1000" y="240" width="60" height="30" as="geometry" />
        </mxCell>
        <mxCell id="9jD9Q91CgVgNfI2XXL_Y-105" value="" style="endArrow=classic;html=1;rounded=0;" parent="1" edge="1">
          <mxGeometry width="50" height="50" relative="1" as="geometry">
            <mxPoint x="-1007.959090909091" y="554" as="sourcePoint" />
            <mxPoint x="-760.05" y="554" as="targetPoint" />
          </mxGeometry>
        </mxCell>
        <mxCell id="9jD9Q91CgVgNfI2XXL_Y-106" value="&lt;font style=&quot;font-size: 11px;&quot;&gt;modifier une clause&lt;/font&gt;" style="text;html=1;align=center;verticalAlign=middle;resizable=0;points=[];autosize=1;strokeColor=none;fillColor=none;" parent="1" vertex="1">
          <mxGeometry x="-942.55" y="525" width="120" height="30" as="geometry" />
        </mxCell>
        <mxCell id="9jD9Q91CgVgNfI2XXL_Y-107" value="" style="endArrow=classic;html=1;rounded=0;" parent="1" edge="1">
          <mxGeometry width="50" height="50" relative="1" as="geometry">
            <mxPoint x="-754" y="559" as="sourcePoint" />
            <mxPoint x="-585.9499999999998" y="559" as="targetPoint" />
          </mxGeometry>
        </mxCell>
        <mxCell id="9jD9Q91CgVgNfI2XXL_Y-108" value="&lt;font style=&quot;font-size: 11px;&quot;&gt;processUsecase()&lt;/font&gt;" style="text;html=1;align=center;verticalAlign=middle;resizable=0;points=[];autosize=1;strokeColor=none;fillColor=none;" parent="1" vertex="1">
          <mxGeometry x="-711.45" y="536" width="110" height="30" as="geometry" />
        </mxCell>
        <mxCell id="9jD9Q91CgVgNfI2XXL_Y-109" value="" style="endArrow=classic;html=1;rounded=0;" parent="1" edge="1">
          <mxGeometry width="50" height="50" relative="1" as="geometry">
            <mxPoint x="-578.0226315789475" y="576" as="sourcePoint" />
            <mxPoint x="-399.9699999999998" y="576" as="targetPoint" />
          </mxGeometry>
        </mxCell>
        <mxCell id="9jD9Q91CgVgNfI2XXL_Y-110" value="response" style="html=1;verticalAlign=bottom;endArrow=open;dashed=1;endSize=8;curved=0;rounded=0;" parent="1" edge="1">
          <mxGeometry x="-0.1233" y="-10" relative="1" as="geometry">
            <mxPoint x="-400.98999999999967" y="606" as="sourcePoint" />
            <mxPoint x="-579.0426315789475" y="606" as="targetPoint" />
            <mxPoint as="offset" />
          </mxGeometry>
        </mxCell>
        <mxCell id="9jD9Q91CgVgNfI2XXL_Y-111" value="response" style="html=1;verticalAlign=bottom;endArrow=open;dashed=1;endSize=8;curved=0;rounded=0;" parent="1" edge="1">
          <mxGeometry x="-0.1233" y="-10" relative="1" as="geometry">
            <mxPoint x="-580.9499999999997" y="636" as="sourcePoint" />
            <mxPoint x="-759" y="636" as="targetPoint" />
            <mxPoint as="offset" />
          </mxGeometry>
        </mxCell>
        <mxCell id="9jD9Q91CgVgNfI2XXL_Y-112" value="afficher message de modfication" style="html=1;verticalAlign=bottom;endArrow=open;dashed=1;endSize=8;curved=0;rounded=0;" parent="1" edge="1">
          <mxGeometry x="-0.1233" y="-10" relative="1" as="geometry">
            <mxPoint x="-759.42" y="651.38" as="sourcePoint" />
            <mxPoint x="-1009.6699999999997" y="651.38" as="targetPoint" />
            <mxPoint as="offset" />
          </mxGeometry>
        </mxCell>
        <mxCell id="9jD9Q91CgVgNfI2XXL_Y-114" value="&lt;font style=&quot;font-size: 11px;&quot;&gt;[Modification]&lt;/font&gt;" style="text;html=1;align=center;verticalAlign=middle;resizable=0;points=[];autosize=1;strokeColor=none;fillColor=none;" parent="1" vertex="1">
          <mxGeometry x="-1000" y="490" width="90" height="30" as="geometry" />
        </mxCell>
        <mxCell id="9jD9Q91CgVgNfI2XXL_Y-116" value="update()" style="text;html=1;align=center;verticalAlign=middle;resizable=0;points=[];autosize=1;strokeColor=none;fillColor=none;" parent="1" vertex="1">
          <mxGeometry x="-525" y="536" width="70" height="30" as="geometry" />
        </mxCell>
        <mxCell id="9jD9Q91CgVgNfI2XXL_Y-127" value="Application" style="shape=umlLifeline;perimeter=lifelinePerimeter;whiteSpace=wrap;html=1;container=0;dropTarget=0;collapsible=0;recursiveResize=0;outlineConnect=0;portConstraint=eastwest;newEdgeStyle={&quot;edgeStyle&quot;:&quot;elbowEdgeStyle&quot;,&quot;elbow&quot;:&quot;vertical&quot;,&quot;curved&quot;:0,&quot;rounded&quot;:0};" parent="1" vertex="1">
          <mxGeometry x="-810" y="827" width="100" height="853" as="geometry" />
        </mxCell>
        <mxCell id="9jD9Q91CgVgNfI2XXL_Y-128" value="" style="html=1;points=[];perimeter=orthogonalPerimeter;outlineConnect=0;targetShapes=umlLifeline;portConstraint=eastwest;newEdgeStyle={&quot;edgeStyle&quot;:&quot;elbowEdgeStyle&quot;,&quot;elbow&quot;:&quot;vertical&quot;,&quot;curved&quot;:0,&quot;rounded&quot;:0};" parent="9jD9Q91CgVgNfI2XXL_Y-127" vertex="1">
          <mxGeometry x="45" y="70" width="10" height="760" as="geometry" />
        </mxCell>
        <mxCell id="9jD9Q91CgVgNfI2XXL_Y-129" value="serveur" style="shape=umlLifeline;perimeter=lifelinePerimeter;whiteSpace=wrap;html=1;container=0;dropTarget=0;collapsible=0;recursiveResize=0;outlineConnect=0;portConstraint=eastwest;newEdgeStyle={&quot;edgeStyle&quot;:&quot;elbowEdgeStyle&quot;,&quot;elbow&quot;:&quot;vertical&quot;,&quot;curved&quot;:0,&quot;rounded&quot;:0};" parent="1" vertex="1">
          <mxGeometry x="-632" y="827" width="100" height="853" as="geometry" />
        </mxCell>
        <mxCell id="9jD9Q91CgVgNfI2XXL_Y-130" value="" style="html=1;points=[];perimeter=orthogonalPerimeter;outlineConnect=0;targetShapes=umlLifeline;portConstraint=eastwest;newEdgeStyle={&quot;edgeStyle&quot;:&quot;elbowEdgeStyle&quot;,&quot;elbow&quot;:&quot;vertical&quot;,&quot;curved&quot;:0,&quot;rounded&quot;:0};" parent="9jD9Q91CgVgNfI2XXL_Y-129" vertex="1">
          <mxGeometry x="45" y="80" width="10" height="750" as="geometry" />
        </mxCell>
        <mxCell id="9jD9Q91CgVgNfI2XXL_Y-131" value="" style="shape=umlLifeline;perimeter=lifelinePerimeter;whiteSpace=wrap;html=1;container=1;dropTarget=0;collapsible=0;recursiveResize=0;outlineConnect=0;portConstraint=eastwest;newEdgeStyle={&quot;curved&quot;:0,&quot;rounded&quot;:0};participant=umlActor;size=40;" parent="1" vertex="1">
          <mxGeometry x="-1020" y="827" width="20" height="853" as="geometry" />
        </mxCell>
        <mxCell id="9jD9Q91CgVgNfI2XXL_Y-132" value="Administrateur" style="text;html=1;align=center;verticalAlign=middle;resizable=0;points=[];autosize=1;strokeColor=none;fillColor=none;" parent="1" vertex="1">
          <mxGeometry x="-1050" y="877" width="100" height="30" as="geometry" />
        </mxCell>
        <mxCell id="9jD9Q91CgVgNfI2XXL_Y-133" value="" style="endArrow=classic;html=1;rounded=0;" parent="1" edge="1">
          <mxGeometry width="50" height="50" relative="1" as="geometry">
            <mxPoint x="-1010.409090909091" y="947" as="sourcePoint" />
            <mxPoint x="-762.5" y="947" as="targetPoint" />
          </mxGeometry>
        </mxCell>
        <mxCell id="9jD9Q91CgVgNfI2XXL_Y-134" value="consulter la liste du paramÃ©trage" style="text;html=1;align=center;verticalAlign=middle;resizable=0;points=[];autosize=1;strokeColor=none;fillColor=none;" parent="1" vertex="1">
          <mxGeometry x="-1000" y="918" width="200" height="30" as="geometry" />
        </mxCell>
        <mxCell id="9jD9Q91CgVgNfI2XXL_Y-135" value="BD" style="shape=umlLifeline;perimeter=lifelinePerimeter;whiteSpace=wrap;html=1;container=0;dropTarget=0;collapsible=0;recursiveResize=0;outlineConnect=0;portConstraint=eastwest;newEdgeStyle={&quot;edgeStyle&quot;:&quot;elbowEdgeStyle&quot;,&quot;elbow&quot;:&quot;vertical&quot;,&quot;curved&quot;:0,&quot;rounded&quot;:0};" parent="1" vertex="1">
          <mxGeometry x="-445" y="827" width="100" height="853" as="geometry" />
        </mxCell>
        <mxCell id="9jD9Q91CgVgNfI2XXL_Y-136" value="" style="html=1;points=[];perimeter=orthogonalPerimeter;outlineConnect=0;targetShapes=umlLifeline;portConstraint=eastwest;newEdgeStyle={&quot;edgeStyle&quot;:&quot;elbowEdgeStyle&quot;,&quot;elbow&quot;:&quot;vertical&quot;,&quot;curved&quot;:0,&quot;rounded&quot;:0};" parent="9jD9Q91CgVgNfI2XXL_Y-135" vertex="1">
          <mxGeometry x="45" y="80" width="10" height="750" as="geometry" />
        </mxCell>
        <mxCell id="9jD9Q91CgVgNfI2XXL_Y-137" value="" style="endArrow=classic;html=1;rounded=0;" parent="1" edge="1">
          <mxGeometry width="50" height="50" relative="1" as="geometry">
            <mxPoint x="-755" y="961" as="sourcePoint" />
            <mxPoint x="-587.4999999999998" y="961" as="targetPoint" />
          </mxGeometry>
        </mxCell>
        <mxCell id="9jD9Q91CgVgNfI2XXL_Y-138" value="initData" style="text;html=1;align=center;verticalAlign=middle;resizable=0;points=[];autosize=1;strokeColor=none;fillColor=none;" parent="1" vertex="1">
          <mxGeometry x="-692" y="938" width="60" height="30" as="geometry" />
        </mxCell>
        <mxCell id="9jD9Q91CgVgNfI2XXL_Y-139" value="charger donnÃ©es" style="html=1;verticalAlign=bottom;endArrow=open;dashed=1;endSize=8;curved=0;rounded=0;" parent="1" source="9jD9Q91CgVgNfI2XXL_Y-130" edge="1">
          <mxGeometry x="0.0952" y="-10" relative="1" as="geometry">
            <mxPoint x="-593" y="997" as="sourcePoint" />
            <mxPoint x="-753.5526315789475" y="997" as="targetPoint" />
            <mxPoint as="offset" />
          </mxGeometry>
        </mxCell>
        <mxCell id="9jD9Q91CgVgNfI2XXL_Y-140" value="" style="endArrow=classic;html=1;rounded=0;" parent="1" edge="1">
          <mxGeometry width="50" height="50" relative="1" as="geometry">
            <mxPoint x="-754" y="1117" as="sourcePoint" />
            <mxPoint x="-585.9499999999998" y="1117" as="targetPoint" />
          </mxGeometry>
        </mxCell>
        <mxCell id="9jD9Q91CgVgNfI2XXL_Y-141" value="processUsecase()" style="text;html=1;align=center;verticalAlign=middle;resizable=0;points=[];autosize=1;strokeColor=none;fillColor=none;" parent="1" vertex="1">
          <mxGeometry x="-721.45" y="1094" width="120" height="30" as="geometry" />
        </mxCell>
        <mxCell id="9jD9Q91CgVgNfI2XXL_Y-142" value="" style="endArrow=classic;html=1;rounded=0;" parent="1" edge="1">
          <mxGeometry width="50" height="50" relative="1" as="geometry">
            <mxPoint x="-1010.0026315789476" y="1092.95" as="sourcePoint" />
            <mxPoint x="-760.5" y="1092.9500000000003" as="targetPoint" />
          </mxGeometry>
        </mxCell>
        <mxCell id="9jD9Q91CgVgNfI2XXL_Y-143" value="crÃ©er un paramÃ©trage" style="text;html=1;align=center;verticalAlign=middle;resizable=0;points=[];autosize=1;strokeColor=none;fillColor=none;" parent="1" vertex="1">
          <mxGeometry x="-975" y="1054" width="140" height="30" as="geometry" />
        </mxCell>
        <mxCell id="9jD9Q91CgVgNfI2XXL_Y-144" value="" style="endArrow=classic;html=1;rounded=0;" parent="1" edge="1">
          <mxGeometry width="50" height="50" relative="1" as="geometry">
            <mxPoint x="-578.0026315789476" y="1141" as="sourcePoint" />
            <mxPoint x="-399.9499999999998" y="1141" as="targetPoint" />
          </mxGeometry>
        </mxCell>
        <mxCell id="9jD9Q91CgVgNfI2XXL_Y-145" value="response" style="html=1;verticalAlign=bottom;endArrow=open;dashed=1;endSize=8;curved=0;rounded=0;" parent="1" edge="1">
          <mxGeometry x="-0.1233" y="-10" relative="1" as="geometry">
            <mxPoint x="-401.9499999999997" y="1173" as="sourcePoint" />
            <mxPoint x="-580.0026315789474" y="1173" as="targetPoint" />
            <mxPoint as="offset" />
          </mxGeometry>
        </mxCell>
        <mxCell id="9jD9Q91CgVgNfI2XXL_Y-146" value="createTable()" style="text;html=1;align=center;verticalAlign=middle;resizable=0;points=[];autosize=1;strokeColor=none;fillColor=none;" parent="1" vertex="1">
          <mxGeometry x="-535" y="1101" width="90" height="30" as="geometry" />
        </mxCell>
        <mxCell id="9jD9Q91CgVgNfI2XXL_Y-147" value="response" style="html=1;verticalAlign=bottom;endArrow=open;dashed=1;endSize=8;curved=0;rounded=0;" parent="1" edge="1">
          <mxGeometry x="-0.1233" y="-10" relative="1" as="geometry">
            <mxPoint x="-581.9499999999997" y="1198" as="sourcePoint" />
            <mxPoint x="-760" y="1198" as="targetPoint" />
            <mxPoint as="offset" />
          </mxGeometry>
        </mxCell>
        <mxCell id="9jD9Q91CgVgNfI2XXL_Y-148" value="alt" style="shape=umlFrame;whiteSpace=wrap;html=1;pointerEvents=0;" parent="1" vertex="1">
          <mxGeometry x="-1070" y="1006" width="710" height="624" as="geometry" />
        </mxCell>
        <mxCell id="9jD9Q91CgVgNfI2XXL_Y-149" value="" style="endArrow=none;dashed=1;html=1;dashPattern=1 3;strokeWidth=2;rounded=0;exitX=0.002;exitY=0.53;exitDx=0;exitDy=0;exitPerimeter=0;" parent="1" edge="1">
          <mxGeometry width="50" height="50" relative="1" as="geometry">
            <mxPoint x="-1070" y="1247.4" as="sourcePoint" />
            <mxPoint x="-362.42" y="1247" as="targetPoint" />
          </mxGeometry>
        </mxCell>
        <mxCell id="9jD9Q91CgVgNfI2XXL_Y-150" value="&lt;font style=&quot;font-size: 12px;&quot;&gt;afficher message d&#39;ajout&lt;/font&gt;" style="html=1;verticalAlign=bottom;endArrow=open;dashed=1;endSize=8;curved=0;rounded=0;" parent="1" edge="1">
          <mxGeometry x="-0.1233" y="-10" relative="1" as="geometry">
            <mxPoint x="-765.42" y="1218.38" as="sourcePoint" />
            <mxPoint x="-1015.6699999999997" y="1218.38" as="targetPoint" />
            <mxPoint as="offset" />
          </mxGeometry>
        </mxCell>
        <mxCell id="9jD9Q91CgVgNfI2XXL_Y-151" value="[ajout]" style="text;html=1;align=center;verticalAlign=middle;resizable=0;points=[];autosize=1;strokeColor=none;fillColor=none;" parent="1" vertex="1">
          <mxGeometry x="-1000" y="1007" width="60" height="30" as="geometry" />
        </mxCell>
        <mxCell id="9jD9Q91CgVgNfI2XXL_Y-152" value="" style="endArrow=classic;html=1;rounded=0;" parent="1" edge="1">
          <mxGeometry width="50" height="50" relative="1" as="geometry">
            <mxPoint x="-1007.959090909091" y="1321" as="sourcePoint" />
            <mxPoint x="-760.05" y="1321" as="targetPoint" />
          </mxGeometry>
        </mxCell>
        <mxCell id="9jD9Q91CgVgNfI2XXL_Y-153" value="modifier un paramÃ©trage" style="text;html=1;align=center;verticalAlign=middle;resizable=0;points=[];autosize=1;strokeColor=none;fillColor=none;" parent="1" vertex="1">
          <mxGeometry x="-957.55" y="1292" width="150" height="30" as="geometry" />
        </mxCell>
        <mxCell id="9jD9Q91CgVgNfI2XXL_Y-154" value="" style="endArrow=classic;html=1;rounded=0;" parent="1" edge="1">
          <mxGeometry width="50" height="50" relative="1" as="geometry">
            <mxPoint x="-754" y="1326" as="sourcePoint" />
            <mxPoint x="-585.9499999999998" y="1326" as="targetPoint" />
          </mxGeometry>
        </mxCell>
        <mxCell id="9jD9Q91CgVgNfI2XXL_Y-155" value="processUsecase()" style="text;html=1;align=center;verticalAlign=middle;resizable=0;points=[];autosize=1;strokeColor=none;fillColor=none;" parent="1" vertex="1">
          <mxGeometry x="-716.45" y="1303" width="120" height="30" as="geometry" />
        </mxCell>
        <mxCell id="9jD9Q91CgVgNfI2XXL_Y-156" value="" style="endArrow=classic;html=1;rounded=0;" parent="1" edge="1">
          <mxGeometry width="50" height="50" relative="1" as="geometry">
            <mxPoint x="-578.0226315789475" y="1343" as="sourcePoint" />
            <mxPoint x="-399.9699999999998" y="1343" as="targetPoint" />
          </mxGeometry>
        </mxCell>
        <mxCell id="9jD9Q91CgVgNfI2XXL_Y-157" value="response" style="html=1;verticalAlign=bottom;endArrow=open;dashed=1;endSize=8;curved=0;rounded=0;" parent="1" edge="1">
          <mxGeometry x="-0.1233" y="-10" relative="1" as="geometry">
            <mxPoint x="-400.98999999999967" y="1373" as="sourcePoint" />
            <mxPoint x="-579.0426315789475" y="1373" as="targetPoint" />
            <mxPoint as="offset" />
          </mxGeometry>
        </mxCell>
        <mxCell id="9jD9Q91CgVgNfI2XXL_Y-158" value="response" style="html=1;verticalAlign=bottom;endArrow=open;dashed=1;endSize=8;curved=0;rounded=0;" parent="1" edge="1">
          <mxGeometry x="-0.1233" y="-10" relative="1" as="geometry">
            <mxPoint x="-580.9499999999997" y="1403" as="sourcePoint" />
            <mxPoint x="-759" y="1403" as="targetPoint" />
            <mxPoint as="offset" />
          </mxGeometry>
        </mxCell>
        <mxCell id="9jD9Q91CgVgNfI2XXL_Y-159" value="&lt;font style=&quot;font-size: 12px;&quot;&gt;afficher message de modfication&lt;/font&gt;" style="html=1;verticalAlign=bottom;endArrow=open;dashed=1;endSize=8;curved=0;rounded=0;" parent="1" edge="1">
          <mxGeometry x="-0.1233" y="-10" relative="1" as="geometry">
            <mxPoint x="-759.42" y="1418.38" as="sourcePoint" />
            <mxPoint x="-1009.6699999999997" y="1418.38" as="targetPoint" />
            <mxPoint as="offset" />
          </mxGeometry>
        </mxCell>
        <mxCell id="9jD9Q91CgVgNfI2XXL_Y-160" value="[Modification]" style="text;html=1;align=center;verticalAlign=middle;resizable=0;points=[];autosize=1;strokeColor=none;fillColor=none;" parent="1" vertex="1">
          <mxGeometry x="-1000" y="1257" width="90" height="30" as="geometry" />
        </mxCell>
        <mxCell id="9jD9Q91CgVgNfI2XXL_Y-161" value="update()" style="text;html=1;align=center;verticalAlign=middle;resizable=0;points=[];autosize=1;strokeColor=none;fillColor=none;" parent="1" vertex="1">
          <mxGeometry x="-525" y="1303" width="70" height="30" as="geometry" />
        </mxCell>
        <mxCell id="9jD9Q91CgVgNfI2XXL_Y-162" value="" style="endArrow=none;dashed=1;html=1;dashPattern=1 3;strokeWidth=2;rounded=0;exitX=0.002;exitY=0.53;exitDx=0;exitDy=0;exitPerimeter=0;" parent="1" edge="1">
          <mxGeometry width="50" height="50" relative="1" as="geometry">
            <mxPoint x="-1067.58" y="1440.4" as="sourcePoint" />
            <mxPoint x="-360" y="1440" as="targetPoint" />
          </mxGeometry>
        </mxCell>
        <mxCell id="9jD9Q91CgVgNfI2XXL_Y-164" value="" style="endArrow=classic;html=1;rounded=0;" parent="1" edge="1">
          <mxGeometry width="50" height="50" relative="1" as="geometry">
            <mxPoint x="-1012.959090909091" y="1514" as="sourcePoint" />
            <mxPoint x="-765.05" y="1514" as="targetPoint" />
          </mxGeometry>
        </mxCell>
        <mxCell id="9jD9Q91CgVgNfI2XXL_Y-165" value="dÃ©sactiver un paramÃ©trage" style="text;html=1;align=center;verticalAlign=middle;resizable=0;points=[];autosize=1;strokeColor=none;fillColor=none;" parent="1" vertex="1">
          <mxGeometry x="-972.55" y="1485" width="170" height="30" as="geometry" />
        </mxCell>
        <mxCell id="9jD9Q91CgVgNfI2XXL_Y-166" value="" style="endArrow=classic;html=1;rounded=0;" parent="1" edge="1">
          <mxGeometry width="50" height="50" relative="1" as="geometry">
            <mxPoint x="-759" y="1519" as="sourcePoint" />
            <mxPoint x="-590.9499999999998" y="1519" as="targetPoint" />
          </mxGeometry>
        </mxCell>
        <mxCell id="9jD9Q91CgVgNfI2XXL_Y-167" value="processUsecase()" style="text;html=1;align=center;verticalAlign=middle;resizable=0;points=[];autosize=1;strokeColor=none;fillColor=none;" parent="1" vertex="1">
          <mxGeometry x="-721.45" y="1496" width="120" height="30" as="geometry" />
        </mxCell>
        <mxCell id="9jD9Q91CgVgNfI2XXL_Y-168" value="" style="endArrow=classic;html=1;rounded=0;" parent="1" edge="1">
          <mxGeometry width="50" height="50" relative="1" as="geometry">
            <mxPoint x="-579.0226315789475" y="1542" as="sourcePoint" />
            <mxPoint x="-400.9699999999998" y="1542" as="targetPoint" />
          </mxGeometry>
        </mxCell>
        <mxCell id="9jD9Q91CgVgNfI2XXL_Y-169" value="response" style="html=1;verticalAlign=bottom;endArrow=open;dashed=1;endSize=8;curved=0;rounded=0;" parent="1" edge="1">
          <mxGeometry x="-0.1233" y="-10" relative="1" as="geometry">
            <mxPoint x="-401.98999999999967" y="1572" as="sourcePoint" />
            <mxPoint x="-580.0426315789475" y="1572" as="targetPoint" />
            <mxPoint as="offset" />
          </mxGeometry>
        </mxCell>
        <mxCell id="9jD9Q91CgVgNfI2XXL_Y-170" value="response" style="html=1;verticalAlign=bottom;endArrow=open;dashed=1;endSize=8;curved=0;rounded=0;" parent="1" edge="1">
          <mxGeometry x="-0.1233" y="-10" relative="1" as="geometry">
            <mxPoint x="-585.9499999999997" y="1596" as="sourcePoint" />
            <mxPoint x="-764" y="1596" as="targetPoint" />
            <mxPoint as="offset" />
          </mxGeometry>
        </mxCell>
        <mxCell id="9jD9Q91CgVgNfI2XXL_Y-171" value="&lt;font style=&quot;font-size: 12px;&quot;&gt;afficher message du suppression&amp;nbsp;&lt;/font&gt;" style="html=1;verticalAlign=bottom;endArrow=open;dashed=1;endSize=8;curved=0;rounded=0;" parent="1" edge="1">
          <mxGeometry x="-0.1233" y="-10" relative="1" as="geometry">
            <mxPoint x="-764.42" y="1611.38" as="sourcePoint" />
            <mxPoint x="-1014.6699999999997" y="1611.38" as="targetPoint" />
            <mxPoint as="offset" />
          </mxGeometry>
        </mxCell>
        <mxCell id="9jD9Q91CgVgNfI2XXL_Y-172" value="[DÃ©sactivation]" style="text;html=1;align=center;verticalAlign=middle;resizable=0;points=[];autosize=1;strokeColor=none;fillColor=none;" parent="1" vertex="1">
          <mxGeometry x="-1010" y="1450" width="100" height="30" as="geometry" />
        </mxCell>
        <mxCell id="9jD9Q91CgVgNfI2XXL_Y-173" value="update()" style="text;html=1;align=center;verticalAlign=middle;resizable=0;points=[];autosize=1;strokeColor=none;fillColor=none;" parent="1" vertex="1">
          <mxGeometry x="-526" y="1502" width="70" height="30" as="geometry" />
        </mxCell>
        <mxCell id="9jD9Q91CgVgNfI2XXL_Y-174" value="Application" style="shape=umlLifeline;perimeter=lifelinePerimeter;whiteSpace=wrap;html=1;container=0;dropTarget=0;collapsible=0;recursiveResize=0;outlineConnect=0;portConstraint=eastwest;newEdgeStyle={&quot;edgeStyle&quot;:&quot;elbowEdgeStyle&quot;,&quot;elbow&quot;:&quot;vertical&quot;,&quot;curved&quot;:0,&quot;rounded&quot;:0};" parent="1" vertex="1">
          <mxGeometry x="-1815" y="59" width="100" height="670" as="geometry" />
        </mxCell>
        <mxCell id="9jD9Q91CgVgNfI2XXL_Y-175" value="" style="html=1;points=[];perimeter=orthogonalPerimeter;outlineConnect=0;targetShapes=umlLifeline;portConstraint=eastwest;newEdgeStyle={&quot;edgeStyle&quot;:&quot;elbowEdgeStyle&quot;,&quot;elbow&quot;:&quot;vertical&quot;,&quot;curved&quot;:0,&quot;rounded&quot;:0};" parent="9jD9Q91CgVgNfI2XXL_Y-174" vertex="1">
          <mxGeometry x="45" y="70" width="10" height="580" as="geometry" />
        </mxCell>
        <mxCell id="9jD9Q91CgVgNfI2XXL_Y-176" value="serveur" style="shape=umlLifeline;perimeter=lifelinePerimeter;whiteSpace=wrap;html=1;container=0;dropTarget=0;collapsible=0;recursiveResize=0;outlineConnect=0;portConstraint=eastwest;newEdgeStyle={&quot;edgeStyle&quot;:&quot;elbowEdgeStyle&quot;,&quot;elbow&quot;:&quot;vertical&quot;,&quot;curved&quot;:0,&quot;rounded&quot;:0};" parent="1" vertex="1">
          <mxGeometry x="-1637" y="59" width="100" height="670" as="geometry" />
        </mxCell>
        <mxCell id="9jD9Q91CgVgNfI2XXL_Y-177" value="" style="html=1;points=[];perimeter=orthogonalPerimeter;outlineConnect=0;targetShapes=umlLifeline;portConstraint=eastwest;newEdgeStyle={&quot;edgeStyle&quot;:&quot;elbowEdgeStyle&quot;,&quot;elbow&quot;:&quot;vertical&quot;,&quot;curved&quot;:0,&quot;rounded&quot;:0};" parent="9jD9Q91CgVgNfI2XXL_Y-176" vertex="1">
          <mxGeometry x="45" y="80" width="10" height="570" as="geometry" />
        </mxCell>
        <mxCell id="9jD9Q91CgVgNfI2XXL_Y-178" value="" style="shape=umlLifeline;perimeter=lifelinePerimeter;whiteSpace=wrap;html=1;container=1;dropTarget=0;collapsible=0;recursiveResize=0;outlineConnect=0;portConstraint=eastwest;newEdgeStyle={&quot;curved&quot;:0,&quot;rounded&quot;:0};participant=umlActor;size=40;" parent="1" vertex="1">
          <mxGeometry x="-2025" y="59" width="20" height="670" as="geometry" />
        </mxCell>
        <mxCell id="9jD9Q91CgVgNfI2XXL_Y-179" value="Administrateur" style="text;html=1;align=center;verticalAlign=middle;resizable=0;points=[];autosize=1;strokeColor=none;fillColor=none;" parent="1" vertex="1">
          <mxGeometry x="-2055" y="109" width="100" height="30" as="geometry" />
        </mxCell>
        <mxCell id="9jD9Q91CgVgNfI2XXL_Y-180" value="" style="endArrow=classic;html=1;rounded=0;" parent="1" edge="1">
          <mxGeometry width="50" height="50" relative="1" as="geometry">
            <mxPoint x="-2015.409090909091" y="179" as="sourcePoint" />
            <mxPoint x="-1767.5" y="179" as="targetPoint" />
          </mxGeometry>
        </mxCell>
        <mxCell id="9jD9Q91CgVgNfI2XXL_Y-181" value="&lt;font style=&quot;font-size: 11px;&quot;&gt;consulter la liste des opÃ©rations&amp;nbsp;&lt;/font&gt;&lt;span style=&quot;font-size: 11px; background-color: initial;&quot;&gt;de l&#39;application&lt;/span&gt;" style="text;html=1;align=center;verticalAlign=middle;resizable=0;points=[];autosize=1;strokeColor=none;fillColor=none;" parent="1" vertex="1">
          <mxGeometry x="-2015" y="151" width="250" height="30" as="geometry" />
        </mxCell>
        <mxCell id="9jD9Q91CgVgNfI2XXL_Y-182" value="BD" style="shape=umlLifeline;perimeter=lifelinePerimeter;whiteSpace=wrap;html=1;container=0;dropTarget=0;collapsible=0;recursiveResize=0;outlineConnect=0;portConstraint=eastwest;newEdgeStyle={&quot;edgeStyle&quot;:&quot;elbowEdgeStyle&quot;,&quot;elbow&quot;:&quot;vertical&quot;,&quot;curved&quot;:0,&quot;rounded&quot;:0};" parent="1" vertex="1">
          <mxGeometry x="-1450" y="59" width="100" height="670" as="geometry" />
        </mxCell>
        <mxCell id="9jD9Q91CgVgNfI2XXL_Y-183" value="" style="html=1;points=[];perimeter=orthogonalPerimeter;outlineConnect=0;targetShapes=umlLifeline;portConstraint=eastwest;newEdgeStyle={&quot;edgeStyle&quot;:&quot;elbowEdgeStyle&quot;,&quot;elbow&quot;:&quot;vertical&quot;,&quot;curved&quot;:0,&quot;rounded&quot;:0};" parent="9jD9Q91CgVgNfI2XXL_Y-182" vertex="1">
          <mxGeometry x="45" y="80" width="10" height="570" as="geometry" />
        </mxCell>
        <mxCell id="9jD9Q91CgVgNfI2XXL_Y-184" value="" style="endArrow=classic;html=1;rounded=0;" parent="1" edge="1">
          <mxGeometry width="50" height="50" relative="1" as="geometry">
            <mxPoint x="-1760" y="193" as="sourcePoint" />
            <mxPoint x="-1592.4999999999998" y="193" as="targetPoint" />
          </mxGeometry>
        </mxCell>
        <mxCell id="9jD9Q91CgVgNfI2XXL_Y-185" value="initData" style="text;html=1;align=center;verticalAlign=middle;resizable=0;points=[];autosize=1;strokeColor=none;fillColor=none;" parent="1" vertex="1">
          <mxGeometry x="-1697" y="170" width="60" height="30" as="geometry" />
        </mxCell>
        <mxCell id="9jD9Q91CgVgNfI2XXL_Y-186" value="charger donnÃ©es" style="html=1;verticalAlign=bottom;endArrow=open;dashed=1;endSize=8;curved=0;rounded=0;" parent="1" source="9jD9Q91CgVgNfI2XXL_Y-177" edge="1">
          <mxGeometry x="0.0952" y="-10" relative="1" as="geometry">
            <mxPoint x="-1598" y="229" as="sourcePoint" />
            <mxPoint x="-1758.5526315789475" y="229" as="targetPoint" />
            <mxPoint as="offset" />
          </mxGeometry>
        </mxCell>
        <mxCell id="9jD9Q91CgVgNfI2XXL_Y-187" value="" style="endArrow=classic;html=1;rounded=0;" parent="1" edge="1">
          <mxGeometry width="50" height="50" relative="1" as="geometry">
            <mxPoint x="-1759" y="349" as="sourcePoint" />
            <mxPoint x="-1590.9499999999998" y="349" as="targetPoint" />
          </mxGeometry>
        </mxCell>
        <mxCell id="9jD9Q91CgVgNfI2XXL_Y-188" value="&lt;font style=&quot;font-size: 11px;&quot;&gt;processUsecase()&lt;/font&gt;" style="text;html=1;align=center;verticalAlign=middle;resizable=0;points=[];autosize=1;strokeColor=none;fillColor=none;" parent="1" vertex="1">
          <mxGeometry x="-1721.45" y="326" width="110" height="30" as="geometry" />
        </mxCell>
        <mxCell id="9jD9Q91CgVgNfI2XXL_Y-189" value="" style="endArrow=classic;html=1;rounded=0;" parent="1" edge="1">
          <mxGeometry width="50" height="50" relative="1" as="geometry">
            <mxPoint x="-2015.0026315789476" y="324.95" as="sourcePoint" />
            <mxPoint x="-1765.5" y="324.95000000000016" as="targetPoint" />
          </mxGeometry>
        </mxCell>
        <mxCell id="9jD9Q91CgVgNfI2XXL_Y-190" value="&lt;font style=&quot;font-size: 11px;&quot;&gt;valider l&#39;opÃ©ration&lt;/font&gt;" style="text;html=1;align=center;verticalAlign=middle;resizable=0;points=[];autosize=1;strokeColor=none;fillColor=none;" parent="1" vertex="1">
          <mxGeometry x="-1965" y="286" width="110" height="30" as="geometry" />
        </mxCell>
        <mxCell id="9jD9Q91CgVgNfI2XXL_Y-191" value="" style="endArrow=classic;html=1;rounded=0;" parent="1" edge="1">
          <mxGeometry width="50" height="50" relative="1" as="geometry">
            <mxPoint x="-1583.0026315789476" y="373" as="sourcePoint" />
            <mxPoint x="-1404.9499999999998" y="373" as="targetPoint" />
          </mxGeometry>
        </mxCell>
        <mxCell id="9jD9Q91CgVgNfI2XXL_Y-192" value="response" style="html=1;verticalAlign=bottom;endArrow=open;dashed=1;endSize=8;curved=0;rounded=0;" parent="1" edge="1">
          <mxGeometry x="-0.1233" y="-10" relative="1" as="geometry">
            <mxPoint x="-1406.9499999999998" y="405" as="sourcePoint" />
            <mxPoint x="-1585.0026315789473" y="405" as="targetPoint" />
            <mxPoint as="offset" />
          </mxGeometry>
        </mxCell>
        <mxCell id="9jD9Q91CgVgNfI2XXL_Y-194" value="response" style="html=1;verticalAlign=bottom;endArrow=open;dashed=1;endSize=8;curved=0;rounded=0;" parent="1" edge="1">
          <mxGeometry x="-0.1233" y="-10" relative="1" as="geometry">
            <mxPoint x="-1586.9499999999998" y="430" as="sourcePoint" />
            <mxPoint x="-1765" y="430" as="targetPoint" />
            <mxPoint as="offset" />
          </mxGeometry>
        </mxCell>
        <mxCell id="9jD9Q91CgVgNfI2XXL_Y-195" value="alt" style="shape=umlFrame;whiteSpace=wrap;html=1;pointerEvents=0;" parent="1" vertex="1">
          <mxGeometry x="-2075" y="238" width="710" height="441" as="geometry" />
        </mxCell>
        <mxCell id="9jD9Q91CgVgNfI2XXL_Y-196" value="" style="endArrow=none;dashed=1;html=1;dashPattern=1 3;strokeWidth=2;rounded=0;exitX=0.002;exitY=0.53;exitDx=0;exitDy=0;exitPerimeter=0;" parent="1" edge="1">
          <mxGeometry width="50" height="50" relative="1" as="geometry">
            <mxPoint x="-2075" y="479.4000000000001" as="sourcePoint" />
            <mxPoint x="-1367.42" y="479" as="targetPoint" />
          </mxGeometry>
        </mxCell>
        <mxCell id="9jD9Q91CgVgNfI2XXL_Y-197" value="&lt;font style=&quot;font-size: 11px;&quot;&gt;afficher message d&#39;ajout&lt;/font&gt;" style="html=1;verticalAlign=bottom;endArrow=open;dashed=1;endSize=8;curved=0;rounded=0;" parent="1" edge="1">
          <mxGeometry x="-0.1233" y="-10" relative="1" as="geometry">
            <mxPoint x="-1770.42" y="450.38" as="sourcePoint" />
            <mxPoint x="-2020.6699999999996" y="450.38" as="targetPoint" />
            <mxPoint as="offset" />
          </mxGeometry>
        </mxCell>
        <mxCell id="9jD9Q91CgVgNfI2XXL_Y-198" value="[validation]" style="text;html=1;align=center;verticalAlign=middle;resizable=0;points=[];autosize=1;strokeColor=none;fillColor=none;" parent="1" vertex="1">
          <mxGeometry x="-2015" y="239" width="80" height="30" as="geometry" />
        </mxCell>
        <mxCell id="9jD9Q91CgVgNfI2XXL_Y-199" value="" style="endArrow=classic;html=1;rounded=0;" parent="1" edge="1">
          <mxGeometry width="50" height="50" relative="1" as="geometry">
            <mxPoint x="-2012.959090909091" y="553" as="sourcePoint" />
            <mxPoint x="-1765.05" y="553" as="targetPoint" />
          </mxGeometry>
        </mxCell>
        <mxCell id="9jD9Q91CgVgNfI2XXL_Y-200" value="&lt;font style=&quot;font-size: 11px;&quot;&gt;refuser l&#39;opÃ©ration&lt;/font&gt;" style="text;html=1;align=center;verticalAlign=middle;resizable=0;points=[];autosize=1;strokeColor=none;fillColor=none;" parent="1" vertex="1">
          <mxGeometry x="-1942.55" y="524" width="110" height="30" as="geometry" />
        </mxCell>
        <mxCell id="9jD9Q91CgVgNfI2XXL_Y-201" value="" style="endArrow=classic;html=1;rounded=0;" parent="1" edge="1">
          <mxGeometry width="50" height="50" relative="1" as="geometry">
            <mxPoint x="-1759" y="558" as="sourcePoint" />
            <mxPoint x="-1590.9499999999998" y="558" as="targetPoint" />
          </mxGeometry>
        </mxCell>
        <mxCell id="9jD9Q91CgVgNfI2XXL_Y-202" value="&lt;font style=&quot;font-size: 11px;&quot;&gt;processUsecase()&lt;/font&gt;" style="text;html=1;align=center;verticalAlign=middle;resizable=0;points=[];autosize=1;strokeColor=none;fillColor=none;" parent="1" vertex="1">
          <mxGeometry x="-1716.45" y="535" width="110" height="30" as="geometry" />
        </mxCell>
        <mxCell id="9jD9Q91CgVgNfI2XXL_Y-203" value="" style="endArrow=classic;html=1;rounded=0;" parent="1" edge="1">
          <mxGeometry width="50" height="50" relative="1" as="geometry">
            <mxPoint x="-1583.0226315789475" y="575" as="sourcePoint" />
            <mxPoint x="-1404.9699999999998" y="575" as="targetPoint" />
          </mxGeometry>
        </mxCell>
        <mxCell id="9jD9Q91CgVgNfI2XXL_Y-204" value="&lt;font style=&quot;font-size: 11px;&quot;&gt;response&lt;/font&gt;" style="html=1;verticalAlign=bottom;endArrow=open;dashed=1;endSize=8;curved=0;rounded=0;" parent="1" edge="1">
          <mxGeometry x="-0.1233" y="-10" relative="1" as="geometry">
            <mxPoint x="-1405.9899999999998" y="605" as="sourcePoint" />
            <mxPoint x="-1584.0426315789475" y="605" as="targetPoint" />
            <mxPoint as="offset" />
          </mxGeometry>
        </mxCell>
        <mxCell id="9jD9Q91CgVgNfI2XXL_Y-205" value="&lt;font style=&quot;font-size: 11px;&quot;&gt;response&lt;/font&gt;" style="html=1;verticalAlign=bottom;endArrow=open;dashed=1;endSize=8;curved=0;rounded=0;" parent="1" edge="1">
          <mxGeometry x="-0.1233" y="-10" relative="1" as="geometry">
            <mxPoint x="-1585.9499999999998" y="635" as="sourcePoint" />
            <mxPoint x="-1764" y="635" as="targetPoint" />
            <mxPoint as="offset" />
          </mxGeometry>
        </mxCell>
        <mxCell id="9jD9Q91CgVgNfI2XXL_Y-206" value="&lt;font style=&quot;font-size: 11px;&quot;&gt;afficher message de rejet&lt;/font&gt;" style="html=1;verticalAlign=bottom;endArrow=open;dashed=1;endSize=8;curved=0;rounded=0;" parent="1" edge="1">
          <mxGeometry x="-0.1233" y="-10" relative="1" as="geometry">
            <mxPoint x="-1764.42" y="650.38" as="sourcePoint" />
            <mxPoint x="-2014.6699999999996" y="650.38" as="targetPoint" />
            <mxPoint as="offset" />
          </mxGeometry>
        </mxCell>
        <mxCell id="9jD9Q91CgVgNfI2XXL_Y-207" value="[refus]" style="text;html=1;align=center;verticalAlign=middle;resizable=0;points=[];autosize=1;strokeColor=none;fillColor=none;" parent="1" vertex="1">
          <mxGeometry x="-2010" y="480" width="60" height="30" as="geometry" />
        </mxCell>
        <mxCell id="mF7304EmfyWJyVlitAoG-1" value="validated()" style="text;html=1;align=center;verticalAlign=middle;resizable=0;points=[];autosize=1;strokeColor=none;fillColor=none;" vertex="1" parent="1">
          <mxGeometry x="-1540" y="328" width="80" height="30" as="geometry" />
        </mxCell>
        <mxCell id="mF7304EmfyWJyVlitAoG-2" value="rejected()" style="text;html=1;align=center;verticalAlign=middle;resizable=0;points=[];autosize=1;strokeColor=none;fillColor=none;" vertex="1" parent="1">
          <mxGeometry x="-1535" y="528" width="70" height="30" as="geometry" />
        </mxCell>
      </root>
    </mxGraphModel>
  </diagram>
</mxfile>
